<svg id="visual" viewBox="0 0 960 540" width="960" height="540" xmlns="http://www.w3.org/2000/svg" xmlns:xlink="http://www.w3.org/1999/xlink" version="1.1"><rect x="0" y="0" width="960" height="540" fill="#0e0e10"/><defs><linearGradient id="grad1_0" x1="43.8%" y1="0%" x2="100%" y2="100%"><stop offset="14.444444444444446%" stop-color="#0e0e10" stop-opacity="1"/><stop offset="85.55555555555554%" stop-color="#0e0e10" stop-opacity="1"/></linearGradient></defs><defs><linearGradient id="grad2_0" x1="0%" y1="0%" x2="56.3%" y2="100%"><stop offset="14.444444444444446%" stop-color="#0e0e10" stop-opacity="1"/><stop offset="85.55555555555554%" stop-color="#0e0e10" stop-opacity="1"/></linearGradient></defs><g transform="translate(960, 0)"><path d="M0 297C-36.7 280.7 -73.4 264.5 -101 243.9C-128.7 223.3 -147.2 198.4 -178.2 178.2C-209.2 158 -252.5 142.6 -274.4 113.7C-296.3 84.7 -296.6 42.4 -297 0L0 0Z" fill="#e1a3ae"/></g><g transform="translate(0, 540)"><path d="M0 -297C36.9 -281.8 73.8 -266.7 102.2 -246.7C130.5 -226.7 150.3 -201.9 181 -181C211.7 -160.1 253.2 -143.2 274.4 -113.7C295.5 -84.1 296.3 -42.1 297 0L0 0Z" fill="#e1a3ae"/></g></svg>