<svg id="visual" viewBox="0 0 675 900" width="675" height="900" xmlns="http://www.w3.org/2000/svg" xmlns:xlink="http://www.w3.org/1999/xlink" version="1.1"><rect x="0" y="0" width="675" height="900" fill="#0e0e10"/><defs><linearGradient id="grad1_0" x1="0%" y1="0%" x2="100%" y2="100%"><stop offset="30%" stop-color="#0e0e10" stop-opacity="1"/><stop offset="70%" stop-color="#0e0e10" stop-opacity="1"/></linearGradient></defs><defs><linearGradient id="grad2_0" x1="0%" y1="0%" x2="100%" y2="100%"><stop offset="30%" stop-color="#0e0e10" stop-opacity="1"/><stop offset="70%" stop-color="#0e0e10" stop-opacity="1"/></linearGradient></defs><g transform="translate(675, 0)"><path d="M0 365.6C-42.4 342.2 -84.7 318.8 -123.6 298.4C-162.5 278 -197.9 260.6 -236.2 236.2C-274.5 211.8 -315.7 180.4 -337.8 139.9C-359.9 99.4 -362.7 49.7 -365.6 0L0 0Z" fill="#e1a3ae"/></g><g transform="translate(0, 900)"><path d="M0 -365.6C38.4 -337.5 76.8 -309.3 122.5 -295.6C168.1 -281.9 221 -282.7 258.5 -258.5C296.1 -234.4 318.2 -185.4 333.5 -138.1C348.8 -90.9 357.2 -45.5 365.6 0L0 0Z" fill="#e1a3ae"/></g></svg>